<svg width="31px" height="25px" viewBox="0 0 31 25" version="1.1" xmlns="http://www.w3.org/2000/svg" xmlns:xlink="http://www.w3.org/1999/xlink">
    <!-- Generator: Sketch 3.6.1 (26313) - http://www.bohemiancoding.com/sketch -->
    <title>dislike</title>
    <g id="Page-1" stroke="none" stroke-width="1" fill="none" fill-rule="evenodd">
        <path d="M2.04841297,11.9480578 C-0.685449152,9.21419565 -0.680042392,4.77632262 2.04806518,2.04821504 C4.78173522,-0.685454998 9.22045897,-0.678886087 11.9441546,2.04480959 C11.9441546,2.04480959 10.6640212,0.764676143 14.2914285,4.39208342 C14.2914282,4.39208434 10.0926251,11.5908873 10.0926251,11.5908873 L17.9999993,14.9982622 L14.0547858,23.9544306 L2.04841297,11.9480578 Z M12.5000003,10.9982624 C12.5000003,10.9982624 16.5382905,4.11496292 16.4709723,4.04764482 C17.4335407,3.10140386 18.3747462,2.17978149 18.3747462,2.17978149 C21.1547228,-0.545670466 25.6423226,-0.521102449 28.387089,2.22366393 L28.3290844,2.16565937 C31.078772,4.91534693 31.0707302,9.38151309 28.3287672,12.1234761 L15.6442593,24.807984 L20.3104039,14.1878584 L12.5000003,10.9982624 Z" id="Combined-Shape" stroke="#FF4927"></path>
    </g>
</svg>
