<?xml version="1.0" encoding="UTF-8" standalone="no"?>
<svg width="50px" height="47px" viewBox="0 0 50 47" version="1.1" xmlns="http://www.w3.org/2000/svg" xmlns:xlink="http://www.w3.org/1999/xlink">
  <defs>
      <filter x="-50%" y="-50%" width="200%" height="200%" filterUnits="objectBoundingBox" id="filter-1">
          <feMorphology radius="1" in="SourceAlpha" operator="dilate" result="shadowSpreadOuter1"></feMorphology>
          <feOffset dx="0" dy="0" in="shadowSpreadOuter1" result="shadowOffsetOuter1"></feOffset>
          <feGaussianBlur stdDeviation="4.5" in="shadowOffsetOuter1" result="shadowBlurOuter1"></feGaussianBlur>
          <feColorMatrix values="0 0 0 0 1   0 0 0 0 1   0 0 0 0 1  0 0 0 0.49 0" in="shadowBlurOuter1" type="matrix" result="shadowMatrixOuter1"></feColorMatrix>
          <feMerge>
              <feMergeNode in="shadowMatrixOuter1"></feMergeNode>
              <feMergeNode in="SourceGraphic"></feMergeNode>
          </feMerge>
      </filter>
  </defs>
  <g id="Page-1" stroke="none" stroke-width="1" fill="none" fill-rule="evenodd" filter="url(#filter-1)">
      <g id="dislike" transform="translate(10.000000, 10.000000)" fill="#FFFFFF">
          <path d="M24.394,0.82755 L24.426,0.8289 C25.9636667,0.9149625 27.1673333,2.2028625 27.1673333,3.7607625 C27.1673333,3.996 27.1403333,4.227525 27.0866667,4.451625 C28.134,4.905225 28.8416667,5.9504625 28.8416667,7.15095 C28.8416667,7.5488625 28.764,7.9336125 28.6133333,8.2927125 C29.4636667,8.8158375 30,9.754425 30,10.802025 C30,11.6008875 29.6756667,12.3562125 29.1246667,12.9029625 C29.519,13.4085375 29.7373333,14.032575 29.7423333,14.6937375 C29.7476667,15.4531125 29.448,16.180425 28.8993333,16.7396625 C28.329,17.321175 27.5456667,17.654625 26.749,17.654625 L20.4946667,17.654625 L20.897,20.2955625 C20.9483333,20.62935 20.9733333,20.9705625 20.9733333,21.3087375 C20.9733333,23.9216625 19.2303333,26.958825 16.9846667,26.958825 C16.3346667,26.958825 15.701,26.726625 15.2023333,26.30475 L14.971,26.109675 L15.2973333,21.7677375 C15.311,21.58245 15.2966667,21.3985125 15.2543333,21.222 C15.2113333,21.0441375 15.141,20.8733625 15.046,20.7160875 L11.611,14.2705125 L10.3253333,13.1571 L10.3253333,2.49885 L11.2263333,2.0840625 C11.31,2.045925 11.399,1.9848375 11.5053333,1.8930375 C12.733,0.836325 14.319,0.8238375 14.3863333,0.8238375 L14.3863333,0.8238375 L24.394,0.82755 L24.394,0.82755 Z M11.4966667,3.26295 L11.4966667,12.6113625 L12.5373333,13.5124875 L16.0526667,20.11095 C16.208,20.369475 16.322,20.6496 16.3916667,20.9415375 C16.4636667,21.238875 16.4876667,21.546675 16.4643333,21.857175 L16.1863333,25.5585375 C16.429,25.6982625 16.704,25.773525 16.985,25.773525 C18.5026667,25.773525 19.8033333,23.31855 19.8033333,21.3087375 C19.8033333,21.0292875 19.7816667,20.7491625 19.7406667,20.47545 L19.13,16.467975 L26.749,16.467975 C27.2363333,16.467975 27.7163333,16.262775 28.0683333,15.903675 C28.396,15.56955 28.5753333,15.1426125 28.5716667,14.7015 C28.5683333,14.1544125 28.3173333,13.649175 27.884,13.3167375 L27.175,12.7733625 L27.9483333,12.328875 C28.492,12.0173625 28.8293333,11.4318 28.8293333,10.802025 C28.8293333,10.0301625 28.341,9.3565125 27.6143333,9.126675 L26.82,8.8765875 L27.3203333,8.2049625 C27.5496667,7.8971625 27.671,7.5326625 27.671,7.151625 C27.671,6.2920125 27.0623333,5.5657125 26.2253333,5.4232875 L25.4313333,5.2896375 L25.8016667,4.5657 C25.931,4.3146 25.9963333,4.0429125 25.9963333,3.7614375 C25.9963333,2.8373625 25.286,2.0732625 24.3763333,2.0138625 L14.388,2.009475 C14.3583333,2.01015 13.1503333,2.0327625 12.2653333,2.7961875 C12.0733333,2.9615625 11.8973333,3.0790125 11.7113333,3.1640625 L11.4966667,3.26295 L11.4966667,3.26295 L11.4966667,3.26295 Z M7.86433333,0.0415125 C8.52733333,0.0415125 9.06733333,0.5882625 9.067,1.25955 L9.067,13.9816125 C9.067,14.6529 8.527,15.19965 7.864,15.19965 L1.203,15.19965 C0.539,15.1999875 0,14.6532375 0,13.98195 L0,1.25955 C0,0.5882625 0.539,0.0415125 1.203,0.0415125 L7.86433333,0.0415125 L7.86433333,0.0415125 Z M1.203,14.0140125 L7.864,14.0140125 C7.88,14.0140125 7.896,13.99815 7.896,13.9816125 L7.896,1.25955 C7.896,1.2430125 7.88,1.2268125 7.864,1.2268125 L1.203,1.2268125 C1.186,1.2268125 1.17,1.2430125 1.17,1.25955 L1.17,13.981275 C1.17,13.9978125 1.186,14.0140125 1.203,14.0140125 L1.203,14.0140125 L1.203,14.0140125 Z" id="Shape"></path>
      </g>
  </g>
</svg>
