<?xml version="1.0" encoding="UTF-8" standalone="no"?>
<svg width="40px" height="38px" viewBox="0 0 40 38" version="1.1" xmlns="http://www.w3.org/2000/svg" xmlns:xlink="http://www.w3.org/1999/xlink">
  <defs>
      <filter x="-50%" y="-50%" width="200%" height="200%" filterUnits="objectBoundingBox" id="filter-1">
          <feMorphology radius="1" in="SourceAlpha" operator="dilate" result="shadowSpreadOuter1"></feMorphology>
          <feOffset dx="0" dy="0" in="shadowSpreadOuter1" result="shadowOffsetOuter1"></feOffset>
          <feGaussianBlur stdDeviation="2.5" in="shadowOffsetOuter1" result="shadowBlurOuter1"></feGaussianBlur>
          <feColorMatrix values="0 0 0 0 1   0 0 0 0 1   0 0 0 0 1  0 0 0 0.49 0" in="shadowBlurOuter1" type="matrix" result="shadowMatrixOuter1"></feColorMatrix>
          <feMerge>
              <feMergeNode in="shadowMatrixOuter1"></feMergeNode>
              <feMergeNode in="SourceGraphic"></feMergeNode>
          </feMerge>
      </filter>
  </defs>
  <g id="Page-1" stroke="none" stroke-width="1" fill="none" fill-rule="evenodd" filter="url(#filter-1)">
      <g id="dislike" transform="translate(6.000000, 6.000000)" fill="#FFFFFF">
          <path d="M9.85294017,2.2848913 L9.85294017,12.0698641 L10.9363009,13.0130707 L14.595853,19.9196739 C14.757559,20.1902717 14.8762359,20.4834783 14.9487607,20.7890489 C15.0237145,21.1002717 15.0486991,21.4224457 15.0244085,21.7474457 L14.7350034,25.6216576 C14.9876256,25.7679076 15.2739077,25.8466848 15.5664359,25.8466848 C17.1463658,25.8466848 18.5003932,23.2770652 18.5003932,21.1733967 C18.5003932,20.8808967 18.4778376,20.5876902 18.4351556,20.3011957 L17.7994359,16.1065761 L25.7310103,16.1065761 C26.2383368,16.1065761 26.7380291,15.8917935 27.1044701,15.5159239 C27.4455795,15.1661957 27.6322701,14.7193207 27.628453,14.2576087 C27.6249829,13.6849728 27.3636855,13.1561413 26.9125744,12.8081793 L26.1744872,12.2394293 L26.979547,11.7741848 C27.5455179,11.448125 27.8966906,10.8352174 27.8966906,10.1760326 C27.8966906,9.368125 27.3883231,8.6630163 26.6318444,8.42244565 L25.8049231,8.16067935 L26.3257829,7.45769022 C26.5645248,7.1355163 26.6908359,6.75399457 26.6908359,6.35516304 C26.6908359,5.45540761 26.0571983,4.69519022 25.1858598,4.54611413 L24.3592855,4.40622283 L24.744812,3.64847826 C24.8794513,3.38565217 24.947465,3.10127717 24.947465,2.80665761 C24.947465,1.83942935 24.2079897,1.03964674 23.2610034,0.977472826 L12.8628923,0.972880435 C12.8320085,0.973586957 11.5744496,0.997255435 10.6531419,1.79633152 C10.453265,1.96942935 10.2700444,2.09236413 10.0764137,2.18138587 L9.85294017,2.2848913 L9.85294017,2.2848913 L9.85294017,2.2848913 Z M0.136969231,13.5380163 L7.07124103,13.5380163 C7.08789744,13.5380163 7.10455385,13.521413 7.10455385,13.5041033 L7.10455385,0.187934783 C7.10455385,0.170625 7.08789744,0.153668478 7.07124103,0.153668478 L0.136969231,0.153668478 C0.119271795,0.153668478 0.102615385,0.170625 0.102615385,0.187934783 L0.102615385,13.50375 C0.102615385,13.5210598 0.119271795,13.5380163 0.136969231,13.5380163 L0.136969231,13.5380163 L0.136969231,13.5380163 Z" id="Shape"></path>
      </g>
  </g>
</svg>
